<?xml version="1.0" encoding="UTF-8"?>
<svg id="Layer_1" xmlns="http://www.w3.org/2000/svg" version="1.1" viewBox="0 0 612 1254">
  <!-- Generator: Adobe Illustrator 30.3.0, SVG Export Plug-In . SVG Version: 2.1.3 Build 182)  -->
  <defs>
    <style>
      .st0 {
        fill: #d44b0c;
      }

      .st1 {
        fill: #f26115;
      }

      .st2 {
        fill: #f66517;
      }

      .st3 {
        fill: #ef6317;
      }

      .st4 {
        fill: #f86718;
      }

      .st5 {
        fill: #f36418;
      }

      .st6 {
        fill: #f36316;
      }

      .st7 {
        fill: #e95910;
      }

      .st8 {
        fill: #e35712;
      }

      .st9 {
        fill: #f25e13;
      }

      .st10 {
        fill: #e96016;
      }

      .st11 {
        fill: #f36116;
      }

      .st12 {
        fill: #e55c15;
      }

      .st13 {
        fill: #ed5f15;
      }

      .st14 {
        fill: #f46518;
      }

      .st15 {
        fill: #eb5e14;
      }

      .st16 {
        fill: #ef6115;
      }

      .st17 {
        fill: #ac3b0e;
      }

      .st18 {
        fill: #f66316;
      }

      .st19 {
        fill: #fb6517;
      }
    </style>
  </defs>
  <path class="st18" d="M326.5,592.4c6,3.4,11.8,6.8,17.7,10.1,1.9,1.1,2.8,2.4,2.8,4.7,0,13.3,0,26.7,0,40,0,2.1-.8,3.2-2.6,4.2-11.5,6.3-22.9,12.7-34.3,19.2-1.6.9-3,.9-4.6,0-11.3-6.4-22.6-12.8-34-19.2-2-1.1-2.7-2.5-2.7-4.7,0-13.1,0-26.2,0-39.3,0-2.4.8-3.9,2.9-5.1,11-6.2,22-12.5,33-18.9,2.2-1.3,4-1.2,6.1,0,5.1,3.1,10.3,5.9,15.6,8.9M291.4,654c4.9,2.8,9.7,5.6,14.6,8.3.8.4,2.2.7,2.8.3,9.8-5.4,19.6-10.9,29.3-16.5.7-.4,1.3-1.7,1.3-2.5,0-11.1.1-22.3,0-33.4,0-.9-.7-2.2-1.5-2.7-9.5-5.5-19-11-28.6-16.3-.8-.4-2.3-.4-3.1,0-9.7,5.4-19.3,10.8-28.9,16.3-.7.4-1.4,1.6-1.4,2.4,0,11.1,0,22.3,0,33.4,0,1.4.4,2.2,1.7,2.9,4.5,2.5,8.9,5,13.7,7.7Z"/>
  <path class="st4" d="M246.9,828.5c0-2.4,0-4.5,0-6.6,0-1.3.6-1.9,1.9-1.9,3.8,0,7.6,0,11.5,0,1.4,0,2.1.6,2.1,2,0,3.8,0,7.6,0,11.5,0,1.4-.5,2.1-2,2-3.8,0-7.6,0-11.5,0-1.5,0-2-.7-1.9-2.1,0-1.5,0-3.1,0-4.9Z"/>
  <path class="st4" d="M514.5,583.3c.5.7,1,1.4,1,2.2,0,3.7,0,7.5,0,11.2,0,1.6-.6,2.1-2.2,2.1-3.6,0-7.2,0-10.7,0-1.8,0-2.7-.5-2.6-2.5.1-3.3.1-6.7,0-10,0-2.2.6-3.2,3-3.1,3.7.2,7.5,0,11.4.1Z"/>
  <path class="st14" d="M136.4,439.1c0,4.3,0,8.3,0,12.4,0,1.6-.6,2.2-2.2,2.1-3.7,0-7.5,0-11.2,0-1.4,0-2.1-.4-2.1-2,0-3.9,0-7.8,0-11.7,0-1.3.4-1.9,1.8-1.9,3.9,0,7.8,0,11.7,0,.6,0,1.2.5,1.9,1Z"/>
  <path class="st5" d="M496,679.2c.1-7.8-.9-6.5,6.4-6.7,2.3,0,4.5,0,6.8,0,1.4,0,2.1.6,2.1,2,0,3.8,0,7.6,0,11.4,0,1.5-.6,2-2.1,2-3.7,0-7.5,0-11.2,0-1.5,0-2.1-.6-2-2,0-2.2,0-4.4,0-6.8Z"/>
  <path class="st2" d="M102.8,569.2c0-1.5.5-2.2,1.9-2.1,3.7,0,7.5,0,11.2,0,1.5,0,2.1.6,2.1,2,0,3.8-.1,7.6,0,11.5,0,1.6-.7,2.1-2.2,2.1-3.6,0-7.2,0-10.7,0-1.6,0-2.2-.7-2.2-2.2,0-3.7,0-7.3,0-11.2Z"/>
  <path class="st14" d="M368,816.4c-.2-4.7-.4-9.2-.3-13.7,0-.4,1.1-1.2,1.7-1.2,4-.1,7.9-.2,11.9,0,.6,0,1.7,1.1,1.7,1.7.1,4,.1,7.9,0,11.9,0,.6-.9,1.7-1.4,1.7-4.4,0-8.9,0-13.5-.3Z"/>
  <path class="st2" d="M330.9,426c2.8,0,5.4,0,8,0,1.6,0,2.2.6,2.2,2.2,0,3.7,0,7.5,0,11.2,0,1.6-.6,2.4-2.3,2.3-3.7,0-7.3,0-11,0-1.7,0-2.3-.6-2.3-2.3,0-3.6.1-7.2,0-10.7,0-2.1.7-2.8,2.7-2.6.8,0,1.6,0,2.7,0Z"/>
  <path class="st4" d="M410.3,467c4.1,0,8,0,11.9-.1,1.7,0,2.5.5,2.5,2.3,0,3.7,0,7.5,0,11.2,0,1.6-.6,2.2-2.1,2.2-3.7,0-7.5,0-11.2,0-.7,0-1.9-.9-1.9-1.4-.2-4.2-.2-8.4-.1-12.6,0-.5.5-.9,1-1.4Z"/>
  <path class="st19" d="M126.9,667.8c.1,1.7-.6,2.3-2,2.3-3.8,0-7.6,0-11.5,0-1.4,0-1.9-.6-1.9-1.9,0-3.8,0-7.6,0-11.5,0-1.4.5-2,2-2,3.7,0,7.3,0,11,0,1.8,0,2.4.7,2.4,2.5,0,3.5,0,7,0,10.7Z"/>
  <path class="st4" d="M188.4,501.5q5.8,0,5.8,5.5c0,2.5,0,5,0,7.5,0,1.6-.5,2.3-2.2,2.3-3.6,0-7.1,0-10.7,0-1.6,0-2.2-.6-2.2-2.2,0-3.6,0-7.3,0-10.9,0-1.5.6-2.2,2.2-2.2,2.3,0,4.5,0,7.1,0Z"/>
  <path class="st19" d="M145.3,739.8c-4.2.1-8.2,0-12.2.2-1.8,0-2.4-.7-2.4-2.5,0-3.6,0-7.2,0-10.7,0-1.7.7-2.3,2.3-2.3,3.7,0,7.3,0,11,0,1.2,0,2.1.2,2.1,1.7,0,4.1,0,8.3,0,12.4,0,.3-.3.7-.7,1.1Z"/>
  <path class="st14" d="M186.6,810q0,5.1-4.9,5.1c-1.9,0-3.9,0-5.8,0-2,.1-2.6-.7-2.5-2.6.1-3,.1-6,0-9,0-1.5.5-2.2,2.1-2.2,3.1,0,6.2,0,9.3,0,1.3,0,1.9.5,1.9,1.9,0,2.2,0,4.4,0,6.8Z"/>
  <path class="st2" d="M222.3,423.5q0-5.9,5.5-5.9t6.4,6.4-6,5.9-5.9-6c0,0,0-.2,0-.5Z"/>
  <path class="st18" d="M186.9,667.5c0,5.7.7,5.2-4.9,5.1-6.5,0-6.5,0-6.4-6.5q0-5,5-5.1t6.4,6.4Z"/>
  <path class="st11" d="M217.6,741.7c0-2.2,0-4.3,0-6.3,0-1.4.4-2.1,1.9-2.1,2.4,0,4.9,0,7.3,0,1.4,0,1.9.6,1.9,1.9,0,2.6,0,5.2,0,7.8,0,1.4-.7,1.8-2,1.8-2.1,0-4.2-.1-6.3,0-2.2.2-3.2-.6-2.8-3Z"/>
  <path class="st3" d="M367.5,738.8c3.1-.2,6-.4,8.9-.3.6,0,1.6,1.1,1.7,1.7.2,2.6.2,5.2,0,7.8,0,.6-1,1.6-1.6,1.7-2.5.2-5,.2-7.6,0-.7,0-1.8-.9-1.8-1.3,0-3.1.1-6.3.4-9.6Z"/>
  <path class="st4" d="M351.5,499.6c-2.1.2-2.9-.4-2.8-2.4.1-2.3,0-4.5,0-6.8,0-1.5.6-2,2-2,2.3,0,4.7,0,7,0,1.4,0,2.1.5,2,2,0,2.4,0,4.9,0,7.3,0,1.5-.6,2-2,2-2,0-4,0-6.3,0Z"/>
  <path class="st5" d="M476.7,753.2c1,0,1.8-.2,2.4,0,.7.3,1.6,1.1,1.7,1.7.2,2.6.2,5.2,0,7.8,0,.6-.9,1.5-1.5,1.6-2.5.2-5,.2-7.5,0-.6,0-1.7-1-1.7-1.7-.2-2.6-.2-5.2,0-7.8,0-.6.9-1.5,1.5-1.5,1.6-.2,3.2-.1,5.1-.1Z"/>
  <path class="st11" d="M301.3,753.2c2.2,0,4.3,0,6.3,0,1.4,0,2.1.5,2,2,0,2.5,0,5-.2,7.5,0,.6-1,1.6-1.6,1.7-2.3.2-4.7,0-7,.1-1.5,0-2.2-.5-2.1-2.1,0-2.3.1-4.5,0-6.8-.1-1.9.7-2.5,2.7-2.3Z"/>
  <path class="st16" d="M455.8,456.6c-5.9,0-5.4.9-5.3-5.2,0-5.8,0-5.8,5.7-5.8,6.2,0,5.4-.9,5.4,5.3,0,0,0,.2,0,.2q0,5.4-5.8,5.4Z"/>
  <path class="st3" d="M247.5,521.8c6.1,0,6.2,0,6.1,5.9,0,5.5.9,5-5.1,4.9-5.5,0-5.5-.1-5.5-5.7,0-.2,0-.5,0-.7,0-4.6-.6-4.3,4.5-4.4Z"/>
  <path class="st2" d="M328.5,733.4c2.8-.1,5.4-.1,8-.2,1.4,0,1.9.5,1.9,1.9,0,2.4,0,4.9,0,7.3,0,1.3-.5,1.7-1.8,1.7-2.4,0-4.7,0-7.1,0-.6,0-1.6-.6-1.6-.9,0-3.2.3-6.4.6-9.7Z"/>
  <path class="st2" d="M190,598.6c-2.7,0-5.1,0-7.5,0-1.4,0-2.1-.4-2-1.9,0-2.4,0-4.7,0-7.1,0-1.3.3-2,1.8-2,2.4,0,4.9,0,7.3,0,.5,0,1.5.7,1.5,1.1,0,3,0,6-.1,9,0,.2-.4.4-.8.7Z"/>
  <path class="st1" d="M452.2,540.8c-1.5,0-2.2-.4-2.1-1.8,0-2.4,0-4.7,0-7.1,0-1.4.7-1.8,1.9-1.8,2.3,0,4.6,0,6.8,0,1.5,0,2,.6,2,2.1,0,2.4,0,4.7,0,7.1,0,1.3-.5,1.7-1.8,1.7-2.2,0-4.4,0-6.8,0Z"/>
  <path class="st6" d="M457.3,652.6c0,2.2,0,4.1,0,6,0,1.6-.6,2.1-2.1,2-2.3-.1-4.5,0-6.8,0-1.3,0-2-.3-2-1.7,0-2.4-.1-4.9,0-7.3,0-.6,1-1.7,1.6-1.7,2.5-.2,5,0,7.5-.1,1.9,0,1.8,1.2,1.7,2.7Z"/>
  <path class="st11" d="M228.6,475.7c0,2.7,0,5.2,0,7.7,0,1.4-.3,2.1-1.9,2.1-2.3,0-4.7,0-7,0-1.5,0-2-.7-2-2.1,0-2.3,0-4.5.1-6.8,0-.6.7-1.7,1.1-1.8,3-.1,6,0,9,0,.2,0,.4.4.6.9Z"/>
  <path class="st2" d="M265.9,484.6q0-3.6,3.5-3.6c.4,0,.8,0,1.2,0,6,0,6.1,0,6,6.1,0,5.6.5,4.7-4.6,4.7-6.1,0-6.1,0-6.2-6,0-.3,0-.6,0-1.2Z"/>
  <path class="st18" d="M163.9,625.5q0-6.3,6.2-6.4c4.8,0,4.3-.5,4.2,4.2,0,1.5,0,3.1,0,4.6,0,1.4-.4,2.1-2,2-1.9-.1-3.7-.2-5.6,0-2.3.2-3.4-.5-3-2.9,0-.4,0-.8,0-1.4Z"/>
  <path class="st1" d="M418,650.8c-2.3,0-4.4,0-6.5,0-1.5,0-2.2-.4-2.2-2.1.1-2.3-.1-4.5,0-6.8,0-.6,1-1.6,1.7-1.6,2.3-.2,4.7,0,7-.2,1.4,0,1.9.5,1.9,1.9,0,2.3.1,4.7,0,7,0,.6-1.1,1.2-1.9,1.7Z"/>
  <path class="st6" d="M226.4,789.9q-5.7,0-5.6-5.5t5.2-5.1,5.3,5.3c0,.2,0,.5,0,.7,0,5.4.5,4.5-4.9,4.6Z"/>
  <path class="st6" d="M436.6,702.6c-2.3,0-4.4,0-6.5,0-1.4,0-2.1-.5-2-2,0-2.3,0-4.5,0-6.8,0-1.4.5-2.1,2-2,2.3,0,4.5,0,6.8,0,1.3,0,1.9.5,1.9,1.8,0,2.4,0,4.9-.1,7.3,0,.6-1.1,1.1-2,1.6Z"/>
  <path class="st1" d="M211.6,702.6c-2.5,0-4.8,0-7,0-1.3,0-1.9-.5-1.9-1.9,0-2.4,0-4.7,0-7.1,0-1.4.6-1.9,1.9-1.8,2.3,0,4.5,0,6.8,0,1.3,0,1.9.5,1.9,1.9,0,2.4,0,4.7,0,7.1,0,.6-.9,1.2-1.5,1.8Z"/>
  <path class="st6" d="M403.5,676.1c.2,1.9-.4,2.6-2.2,2.6-2.3,0-4.6.1-6.8,0-.6,0-1.6-1-1.7-1.7-.2-2.4-.2-4.9,0-7.3,0-.6.9-1.6,1.5-1.6,2.5-.2,5-.2,7.5,0,.6,0,1.5,1.1,1.5,1.8.2,2,0,4,0,6.3Z"/>
  <path class="st2" d="M201.1,565.6c-.4-2.5.6-3.3,2.8-3.1,2,.2,4.1,0,6.1.1.7,0,1.7,1,1.7,1.6.2,2.8,0,5.7,0,8.8-3.4,0-6.5,0-9.7,0-.4,0-1-1-1.1-1.5-.1-1.9,0-3.7,0-5.8Z"/>
  <path class="st3" d="M253.5,729.2c0-3.1,0-5.9,0-9.2,3.2,0,6.2,0,9.1,0,.4,0,1.1.9,1.1,1.5.1,2.4.1,4.9,0,7.3,0,.5-.6,1.4-.9,1.4-2.8,0-5.7,0-8.5,0-.3,0-.5-.5-.8-1Z"/>
  <path class="st5" d="M399.1,575c0-4.5-.7-4.1,3.9-4.2,6.3,0,6.3,0,6.3,6.2,0,.7.2,1.6,0,2.2-.3.7-1.1,1.6-1.7,1.7-2,.2-4.1,0-6.1.2-1.9.1-2.5-.7-2.3-2.4.1-1.1,0-2.3,0-3.6Z"/>
  <path class="st16" d="M150.2,542.3c0,2.3,0,4.5,0,6.6,0,1.4-.5,1.9-1.9,1.8-2,0-4.1,0-6.1,0-1.5,0-2.3-.4-2.2-2.1,0-2.1.1-4.2,0-6.3,0-1.5.6-2,2-2,2.1,0,4.2-.1,6.3.1.6,0,1.2,1,1.8,1.8Z"/>
  <path class="st18" d="M413,610.6c.3,3.1.4,6,.4,9,0,.3-1,.9-1.5,1-2.2.1-4.4,0-6.6,0-1.6,0-2-.7-1.9-2.1,0-2.1,0-4.2,0-6.3,0-1.4.6-1.9,1.9-1.8,2.5,0,5,0,7.7.1Z"/>
  <path class="st11" d="M203.8,644.4c.5,2.7-.6,3.6-3.1,3.3-2.2-.3-5.2.5-6.5-.6-1.1-1-.4-4.1-.5-6.3,0-1,0-1.9,0-3.3,3.1,0,5.9,0,8.7,0,.5,0,1.2,1,1.3,1.5.2,1.7,0,3.4,0,5.3Z"/>
  <path class="st11" d="M398.8,542.7q-4.5,0-4.4-4.2,0-6,6.1-6.1c4.8,0,4.1-.3,4.1,4.2,0,.2,0,.5,0,.7q0,5.4-5.8,5.4Z"/>
  <path class="st11" d="M367.9,547.5c-.2-2.9-.4-5.6-.3-8.4,0-.5,1.1-1.3,1.7-1.4,2.3-.2,4.6-.2,6.8,0,.6,0,1.5,1,1.5,1.5.2,2.3,0,4.5.1,6.8,0,1.2-.4,1.8-1.7,1.8-2.7-.1-5.3-.2-8.2-.4Z"/>
  <path class="st18" d="M399.6,711.5c-2.4,0-4.6,0-6.8,0-1.4,0-2.1-.3-2.1-1.9,0-2.2,0-4.4,0-6.6,0-1.5.6-2,2-2,2.2,0,4.4,0,6.6,0,1.3,0,2,.3,1.9,1.8,0,2.4,0,4.7-.1,7.1,0,.5-.9,1-1.6,1.5Z"/>
  <path class="st13" d="M337.7,531.1c0,2.5,0,4.7,0,7,0,1.3-.4,1.9-1.8,1.9-2.1,0-4.2.1-6.3,0-.6,0-1.7-1-1.7-1.6-.2-2.2-.1-4.4,0-6.5,0-.6.6-1.6,1-1.6,2.7-.1,5.5,0,8.2,0,.2,0,.4.4.6.9Z"/>
  <path class="st11" d="M419.5,550.7c2.4.1,5.5-.6,6.7.6,1.2,1.2.4,4.3.6,6.5.2,2-.3,2.9-2.6,2.8-7.2-.1-7.2,0-7.1-7.6,0-1.6.4-2.5,2.4-2.3Z"/>
  <path class="st11" d="M301,461.1q0,5.4-5.1,5.5c-1.4,0-2.9,0-4.6,0,0-3,0-5.8,0-8.6,0-.4,1-1.1,1.6-1.1,1.8-.2,3.6,0,5.3-.1,2.2-.2,3,.6,2.7,2.7,0,.5,0,1,0,1.7Z"/>
  <path class="st1" d="M217.3,587.9c2.1,0,3.9,0,6.2,0,0,3,0,5.9,0,8.8,0,.4-.8,1.1-1.2,1.1-2.4,0-4.9.1-7.3,0-.6,0-1.4-1-1.5-1.6-.2-2.2-.2-4.4,0-6.6.1-2.9,2.4-1.2,3.9-1.6Z"/>
  <path class="st1" d="M432,595.4c0,1.6,0,3.1,0,4.9-2.9,0-5.7,0-8.4,0-.4,0-1-.8-1.2-1.3-.2-.4,0-1,0-1.4,0-6.9,0-6.9,6.9-7.1,2.1,0,3.1.4,2.8,2.6-.1.7,0,1.5,0,2.4Z"/>
  <path class="st18" d="M238.7,678.7c.5.6,1,1.2,1.1,1.8.1,2,0,4,0,6.1,0,1.5-.6,2-2,2-1.9,0-3.9-.1-5.8,0-1.2,0-1.8-.4-1.8-1.7,0-2.1-.1-4.2,0-6.3,0-.6,1-1.6,1.7-1.7,2.2-.2,4.4-.1,6.8-.1Z"/>
  <path class="st18" d="M323,506.8c2.5,0,4.7,0,7,0,1.4,0,1.8.5,1.9,1.8.4,8.2-.2,8.7-8.3,8-.6,0-1.5-.6-1.5-1,0-2.7,0-5.5,0-8.2,0-.2.5-.4.9-.6Z"/>
  <path class="st13" d="M295.3,532.7c.2,1.9-.5,2.6-2.2,2.5-1.9-.1-3.9,0-5.8-.2-.6,0-1.6-1-1.6-1.7-.2-2.1-.2-4.2,0-6.3,0-.6,1-1.6,1.6-1.7,2.1-.2,4.2,0,6.3-.1,1.3,0,1.8.5,1.7,1.7,0,1.9,0,3.7,0,5.8Z"/>
  <path class="st18" d="M472.4,701.5c5.1,0,4.5-.6,4.5,4.3,0,5.7,0,5.7-5.7,5.7-4.8,0-4.1.5-4.1-4.2,0-.2,0-.5,0-.7q0-5.1,5.4-5.1Z"/>
  <path class="st6" d="M384.7,449q-3.7,0-3.7-3.5,0-6,6.1-6,3.3,0,3.2,3.3c0,1.3-.1,2.6,0,3.9.2,2-.6,2.6-2.5,2.4-1-.1-1.9,0-3.1,0Z"/>
  <path class="st6" d="M367,400.5c-5.2,0-4.4.4-4.5-4.1-.1-5.6,0-5.6,5.6-5.6,4.3,0,4.1-.9,4.1,4.1,0,.2,0,.3,0,.5q0,5.1-5.2,5.1Z"/>
  <path class="st16" d="M464.1,613.5c0-2.2.1-4.1,0-6,0-1.5.6-1.9,2-2,7.7-.3,7.6-.3,7.8,7.4,0,1.9-.4,2.7-2.4,2.5-1.8-.2-3.7,0-5.6,0-1.2,0-1.9-.3-1.8-1.8Z"/>
  <path class="st16" d="M137.8,616.7q0,3.8-3.5,3.8-5.6,0-5.6-5.5c0-.6,0-1.1,0-1.7-.2-1.7.5-2.4,2.2-2.2.5,0,1,0,1.5,0q5.4,0,5.5,5.6Z"/>
  <path class="st18" d="M344.2,774.4c0,1.7,0,3.1,0,4.8-2.8,0-5.2,0-7.7,0-.5,0-1.3-.8-1.3-1.3-.1-2.6,0-5.1,0-8,2.8,0,5.2,0,7.6,0,.5,0,1.3.9,1.4,1.6.2.8,0,1.8,0,2.9Z"/>
  <path class="st18" d="M85.9,640.4c-5.4,0-5.4,0-5.3-5.2,0-4.4-.7-4,4-4,1.7,0,3.4,0,5.2,0v9.2c-1.2,0-2.4,0-3.8,0Z"/>
  <path class="st13" d="M439,741.5c-.7-.5-1.5-1-1.6-1.6-.1-2.4,0-4.8,0-7.5h9.1c0,2.6,0,5.2,0,7.8,0,.4-1,1.1-1.6,1.2-1.9.2-3.7,0-5.8,0Z"/>
  <path class="st16" d="M281.2,793c0-1,0-1.7,0-2.4-.1-1.4.5-1.9,1.9-1.9,1.9,0,3.7,0,5.6,0,1.3,0,1.7.6,1.7,1.8,0,1.9,0,3.9,0,5.8,0,1.3-.5,1.8-1.7,1.7-.9,0-1.8,0-2.7,0q-4.8,0-4.7-5Z"/>
  <path class="st9" d="M303.9,722.7c0-4.3-.6-4,3.8-4,1.7,0,3.4,0,5.4,0,0,2.8,0,5.4,0,8,0,.4-.9,1-1.5,1.1-1.7.1-3.4,0-5.1.1-2,.2-2.9-.5-2.6-2.6.1-.8,0-1.6,0-2.7Z"/>
  <path class="st3" d="M71.1,685.6c-6.6,0-6.5,0-6.6-6.4,0-2.2.6-3.1,2.9-2.9,2,.2,4,0,6.3,0,0,2.9.1,5.4-.1,8,0,.5-1.5.9-2.5,1.3Z"/>
  <path class="st18" d="M184,716.6c0,2.3,0,4.4,0,6.5,0,1.6-.6,2.1-2.1,2-1.7-.1-3.4,0-5.1,0-1.5,0-2.1-.4-2.2-2-.2-7.7-.3-7.7,7.4-7.4.6,0,1.3.4,1.9.9Z"/>
  <path class="st13" d="M388.6,776.1c0-1.8-.2-3.5,0-5.1,0-.6,1-1.6,1.6-1.6,1.8-.2,3.7-.2,5.6,0,.6,0,1.5.8,1.6,1.2.2,2.5,0,5,0,7.7-2.8,0-5.2.1-7.6,0-.5,0-.9-1.3-1.4-2.2Z"/>
  <path class="st5" d="M495.8,525.9c-5.3,0-4.6.4-4.6-4.4,0-1.5,0-3,0-4.7h9.1c0,2.8,0,5.4,0,8,0,.4-.8.9-1.3,1-.9.2-1.9,0-3.1,0Z"/>
  <path class="st1" d="M275.5,439c0,.9-.1,1.7-.2,2.6-2.6,0-5,0-7.4,0-.5,0-1.3-.9-1.3-1.5-.2-2-.2-4.1,0-6.1,0-.6.9-1.5,1.5-1.5,1.9-.2,3.9,0,5.8,0,1.3,0,1.7.6,1.6,1.8,0,1.5,0,3.1,0,4.9Z"/>
  <path class="st15" d="M421.3,517.6c0-6.1-.7-5.1,5-5.2.6,0,1.1,0,1.7,0,1.6-.2,2.5.4,2.3,2.2,0,.2,0,.5,0,.7,0,6.5-1.1,7.5-7.7,6.2-2.3-.5-.9-2.4-1.3-3.8Z"/>
  <path class="st5" d="M457.6,818.2c-.3-2.7-.5-5.4-.5-8,0-.3.5-.8.9-1,.3-.2.8,0,1.2,0,7.2-.2,8.1.8,6.8,8,0,.5-1,1.2-1.6,1.2-2.2.1-4.4,0-6.8,0Z"/>
  <path class="st13" d="M318.9,817.3q0-5.3,4.9-5.3c.6,0,1.3,0,1.9,0,1.8-.2,2.3.7,2.2,2.3,0,1.5-.1,3.1,0,4.6.1,1.8-.7,2.3-2.3,2.2-1,0-2.1,0-3.2,0q-3.5,0-3.6-3.7Z"/>
  <path class="st15" d="M257.7,761.5c0-5.9,0-5.8,5.8-6,2.2,0,3.1.5,3.1,2.9-.1,6.2,0,6.1-6.2,6.1-2.1,0-3-.7-2.7-3Z"/>
  <path class="st1" d="M131.3,783.7c2.7-.4,5.3-.6,7.9-.7.2,0,.6.5.7.8.1.4,0,.8,0,1.2.1,7.3.1,7.3-7.1,6.6-.6,0-1.6-1.1-1.6-1.7-.2-2,0-4.1,0-6.3Z"/>
  <path class="st5" d="M352.7,845.7c.6.2,1.4.4,1.4.6,0,2.6,0,5.2,0,7.7,0,.2-.6.6-.9.6-2.2,0-4.4.1-6.6,0-.4,0-.9-.7-1.2-1.1-.1-.1,0-.5,0-.7q-.3-7,7.3-7.1Z"/>
  <path class="st11" d="M539.2,643.3c0,2.5,0,4.7,0,7.1h-8.9c0-2.5,0-5,0-7.5,0-.4.8-1.1,1.2-1.1,2.1-.1,4.2-.1,6.3,0,.5,0,.9.9,1.3,1.5Z"/>
  <path class="st18" d="M280.3,706.5c2.3,0,4.3,0,6.3,0,1.3,0,1.8.5,1.9,1.8.3,7.1.3,7-6.8,7.1-2,0-2.8-.5-2.6-2.6.2-1.4,0-2.9,0-4.4,0-.7.6-1.3,1.1-2Z"/>
  <path class="st5" d="M433.4,774.4c4.1,0,3.9-.6,3.9,3.7q0,5.3-5.3,5.2c-1,0-2.1,0-3.5,0,0-2.7,0-5.2,0-7.7,0-.4.9-1.1,1.4-1.2,1-.2,2.1,0,3.4,0Z"/>
  <path class="st16" d="M160,583.6c0,1.7,0,3.1,0,4.9-2.6,0-5,0-7.3,0-.5,0-1.3-.9-1.4-1.4-.7-6.6.8-8,7.3-7.1,2.5.4,1,2.3,1.3,3.7Z"/>
  <path class="st16" d="M275.5,549.2c0,1.4-.4,2.1-1.7,2-.5,0-1,0-1.5,0-6.6,0-6.6,0-5.9-6.7,0-.6.9-1.2,1.6-1.6.3-.2.8,0,1.2,0q6.2,0,6.3,6.4Z"/>
  <path class="st3" d="M253.5,560.5c.3,2.4-.6,3.2-2.8,2.9,0,0-.2,0-.2,0-6.5,0-6.5,0-5.8-6.5,0-.6,1-1.3,1.7-1.7.5-.3,1.3,0,1.9,0,5.9.1,5.1-.9,5.2,5.4Z"/>
  <path class="st16" d="M375.1,689.4c-1.7,0-3.1,0-4.6,0-1.5.1-2.1-.4-2.2-2-.1-6.3-.2-6.3,6.2-6.3.8,0,1.6,0,2.8,0,0,2.5.1,4.8,0,7.1,0,.4-1.2.8-2.1,1.2Z"/>
  <path class="st9" d="M224.1,544.2c.3-.6.6-1.4.9-1.4,2.3-.1,4.7-.1,7,0,.3,0,.8.9.9,1.4,0,2.2,0,4.3,0,6.7h-8.8c0-2.2,0-4.3,0-6.6Z"/>
  <path class="st10" d="M514,734.9q5.3,0,5.3,5.1c0,1,0,2.1,0,3.4-2.7,0-5.1,0-7.5,0-.4,0-1.1-.9-1.1-1.4-.2-1.3,0-2.6,0-3.9q0-3.2,3.4-3.2Z"/>
  <path class="st16" d="M328.4,714.7q-4.8,0-4.8-4.7c0-1,0-2.1,0-3.6,2.6,0,5.1,0,7.6,0,.4,0,.9.9,1,1.3.1,2.2,0,4.4,0,6.9-1.4,0-2.5,0-3.8,0Z"/>
  <path class="st6" d="M448,573.8c.6,0,1,0,1.4,0,2.1-.3,2.9.5,2.7,2.7-.2,1.9,0,3.8,0,6.2-2.6,0-4.9,0-7.2,0-.5,0-1.2-.9-1.3-1.5-.2-1.4,0-2.9,0-4.4-.2-2.1.4-3.3,2.8-2.9.5,0,1,0,1.7,0Z"/>
  <path class="st14" d="M71,555.7c0-5-.6-4.4,4.1-4.4,5.2,0,4.3-.6,4.4,4.3,0,1.3,0,2.6,0,4.2-2.6,0-5,0-7.4,0-.4,0-1-.7-1.1-1.2-.2-.9,0-1.8,0-2.9Z"/>
  <path class="st16" d="M276.3,516.8c-1.3,0-2.3,0-3.7,0,0-2.4,0-4.7,0-6.9,0-.4.8-1,1.3-1,2.2-.1,4.5,0,7,0v8c-1.5,0-2.9,0-4.5,0Z"/>
  <path class="st14" d="M348.1,722.7c-2,.3-2.7-.4-2.6-2.3.2-1.8,0-3.5,0-5.5h8.4v7.8c-2,0-3.8,0-5.9,0Z"/>
  <path class="st14" d="M432.4,624.1c0-1.4,0-2.6,0-4h8.1v7.9h-8.1c0-1.3,0-2.5,0-3.9Z"/>
  <path class="st13" d="M223.9,620.2c.2,2,.3,3.9.4,5.8,0,.2,0,.3,0,.5-.7,2.8-2.9,1.3-4.4,1.4-1.3,0-3.5,1.3-3.9-1.4,0,0,0-.2,0-.2-.6-6.4.3-7.1,7.9-5.9Z"/>
  <path class="st1" d="M376.8,576.3c2.4-.2,4.7-.4,7.1-.6.2,0,.6.2.6.3,0,2.3.5,5-.5,6.8-.7,1.2-3.6,1.1-5.6,1.4-.4,0-.9-1.1-1.4-2.1,0-2.2-.1-4-.2-5.8Z"/>
  <path class="st11" d="M162.2,685.4c0,2.4,0,4.6,0,7-2.4,0-4.5,0-6.7,0-.2,0-.5,0-.5,0-.3-1.7-.7-3.5-.8-5.2,0-.8.5-2.4.8-2.4,2.3,0,4.7.2,7.1.6Z"/>
  <path class="st10" d="M94.2,498.5q-3.9,0-3.9-3.6c0-1.3,0-2.6,0-4.3,2.3,0,4.5,0,6.7,0,.4,0,1.1.9,1.1,1.4.1,2,0,4,0,6.5-1.3,0-2.5,0-3.9,0Z"/>
  <path class="st12" d="M393.9,653.1c.2,1.5-.3,2.2-1.7,2.1-1,0-2.1-.1-3.1,0-1.9.2-2.9-.2-2.9-2.6.1-5.6.5-5.9,7.7-4.6,0,1.6,0,3.3,0,5.2Z"/>
  <path class="st13" d="M349.2,694.5c-.1-1.5.3-2.2,1.7-2.2,7.4.2,5.9-1.3,6.1,5.8,0,.5,0,1.1-.2,1.9-2.1,0-4.1.1-6.1,0-.5,0-1.3-.8-1.4-1.4-.2-1.3-.1-2.6-.2-4.1Z"/>
  <path class="st16" d="M180.6,758.4c-.3-2.3.6-2.9,2.6-2.8,5.2,0,5.2,0,5.1,5.1,0,.8,0,1.6,0,2.5h-7.7c0-1.6,0-3.1,0-4.7Z"/>
  <path class="st13" d="M250.8,703.8c-.4-2.3-.6-4.6-.7-6.9,0-.1.6-.4,1-.4.5,0,1,0,1.5,0,5.5-.1,6,.5,5,6,0,.5-.9,1.2-1.5,1.3-1.7.2-3.4,0-5.3,0Z"/>
  <path class="st5" d="M181.1,416.8c-2.4.5-4.8.8-7.4,1.2v-7.7h7.4c0,2.1,0,4.2,0,6.5Z"/>
  <path class="st12" d="M400.1,735.1c.7,0,1.2,0,1.7,0,5.5,0,6.1.7,5.1,6.2,0,0,0,.2,0,.2-.8.4-1.6,1.1-2.3,1-1.7-.3-4.2,1.3-5-.9-.6-1.9.1-4.2.5-6.4Z"/>
  <path class="st12" d="M146.8,650.1c-.1-1.6.2-2.4,1.9-2.5,5.5-.1,6.2.5,5.2,6.1,0,.5-.8,1.2-1.3,1.3-1.8.1-3.7,0-5.9,0,0-1.7,0-3.3,0-5Z"/>
  <path class="st15" d="M367.5,467c0,1.6,0,2.9,0,4.6-2.2,0-4.1,0-5.9,0,0,0-.2,0-.2,0-2.1-1.6-.6-3.8-1-5.8,0-.4.9-1.4,1.5-1.5,1-.3,2.1,0,3.1-.1,2.1-.3,2.8.7,2.5,2.9Z"/>
  <path class="st3" d="M309.5,487c1.8,0,3.4,0,5.2,0v7.5h-7.3c0-2.2,0-4.3,0-6.4,0-.4,1.1-.7,2-1Z"/>
  <path class="st5" d="M386.5,495.1c1.3,0,2.4,0,3.4,0,.2.4.3.4.3.5,0,8.4,1.7,7-7,6.9v-7.4c1.1,0,2.2,0,3.4,0Z"/>
  <path class="st3" d="M462.8,499.3c-1,0-1.8-.1-2.7-.2v-7.1h7.1c0,1.9.1,3.9,0,5.8,0,.5-.9,1.2-1.4,1.4-.8.2-1.8,0-2.9,0Z"/>
  <path class="st11" d="M533.1,564.9c0,1,0,1.8,0,2.8h-7.2v-7.1h7.2c0,1.4,0,2.8,0,4.3Z"/>
  <path class="st16" d="M351.5,547.9q5.9,0,5.6,5.8c0,.4,0,.8-.2,1.4h-7.7c0-2-.1-3.9,0-5.8,0-.5,1.3-.9,2.2-1.3Z"/>
  <path class="st3" d="M486.6,642.7c-1.2,0-2.1,0-3.4,0,0-2.2,0-4.1,0-6.1,0-.5.8-1.3,1.2-1.3,1.9-.1,3.9,0,6,0v7.4c-1.2,0-2.4,0-3.8,0Z"/>
  <path class="st14" d="M204.1,612.8c.2,2.4.2,4.8.2,7.2h-7.1v-7.4c2.3,0,4.5,0,7,.1Z"/>
  <path class="st1" d="M295.8,408.9c0,1.4,0,2.5,0,3.8h-7.1v-7.2h7.1c0,1.1,0,2.1,0,3.4Z"/>
  <path class="st16" d="M244.8,459.3q5.4,0,5.4,5c0,.6,0,1.3,0,2.3-2.1,0-4.1,0-6.1,0-.2,0-.4,0-.4-.1-.2-1.9-.5-3.7-.5-5.6,0-.5,1-1.1,1.7-1.6Z"/>
  <path class="st9" d="M317.7,570.8c0-1.2,0-2.3,0-3.3q0-3.4,3.6-3.4c.7,0,1.4,0,2.2,0,.6,2,1.4,3.9,1.6,5.9.2,2.6-.9,3.3-3.4,2.4-1.3-.4-2.5-.9-3.9-1.5Z"/>
  <path class="st3" d="M246.4,503.8c0-1.5,0-2.8,0-4.3h6.9v7c-1.5,0-3.1-.1-4.5,0-2,.2-2.6-.7-2.4-2.7Z"/>
  <path class="st9" d="M232.4,707.2c.3,2.4.4,4.7.6,7.4-2.2,0-4.1,0-6,0-.4,0-1.1-.9-1.1-1.4-.1-1.8,0-3.7,0-6,2.3,0,4.3,0,6.6,0Z"/>
  <path class="st5" d="M540.5,696.4c1.9,0,3.6,0,5.5,0v7.2c-.8,0-1.5.2-2.2.1-1.6-.1-4.2,0-4.4-.6-.6-1.8-.3-4-.2-6,0-.2.7-.5,1.3-.7Z"/>
  <path class="st5" d="M502.8,444.6c0,1.5,0,2.8,0,4.3h-6.9v-7h6.7c0,.9,0,1.7.1,2.7Z"/>
  <path class="st11" d="M328.6,474.2c-1.6.2-2.4-.1-2.3-1.8.1-1.8,0-3.5,0-5.5h7v7.3c-1.5,0-3,0-4.7,0Z"/>
  <path class="st13" d="M231.4,663.4c0-1.9,0-3.6,0-5.5h7.2v7.1c-2.1,0-4.1,0-6.1,0-.4,0-.7-.8-1.1-1.5Z"/>
  <path class="st18" d="M214.7,664.9c.7.3,1.2.6,1.7.9,0,0,0,.3,0,.5.7,5.8-1,7.4-6.8,6.2-.5-.1-1.1-.9-1.2-1.4-.1-1.9,0-3.9,0-6.2,2.2,0,4.1,0,6.4,0Z"/>
  <path class="st9" d="M221,521.4c-1.3,0-2.5,0-3.8,0v-7.1h6.7v7.1c-1,0-1.8,0-2.9,0Z"/>
  <path class="st3" d="M174.1,547.9c.8.4,1.7.8,1.7,1.3.2,1.9,0,3.8,0,6-2.3,0-4.2,0-6.1,0,0,0-.2,0-.2,0-2.3-1.4-.7-3.6-1.1-5.4-.2-1,0-1.9,1.5-1.9,1.3,0,2.6,0,4.1,0Z"/>
  <path class="st15" d="M290.4,555.2c-1,0-1.8,0-3.1,0,0-2.1,0-4.1,0-6,0-.4.8-1,1.2-1.1,1.5-.1,3.1-.2,4.6,0,.5,0,1.3.8,1.3,1.3.2,1.8,0,3.7,0,5.8-1.5,0-2.7,0-4.1,0Z"/>
  <path class="st13" d="M199.5,542.8c-1.6,0-2.9,0-4.5,0v-7.2h6.8v7.2c-.7,0-1.4,0-2.4,0Z"/>
  <path class="st6" d="M194.1,461.6c-1.8,0-3.4,0-5.3,0v-7.4c2,0,4,0,6,0,.2,0,.7,0,.7.1.2,2,.4,4.1.4,6.1,0,.4-1.1.7-1.9,1.1Z"/>
  <path class="st9" d="M373,566.2c-.4.7-.7,1.3-1.2,1.7-.2.2-.6,0-.9,0-5.1.1-6-.9-5-6,0-.5.6-1.1.9-1.2,1.8-.2,3.6-.2,5.3-.1.3,0,.8.9.9,1.4.1,1.3,0,2.6,0,4.1Z"/>
  <path class="st3" d="M262.6,392c1.3,0,2.4,0,3.7,0v7.2c-2,0-4,0-6,0-.4,0-1-.8-1-1.3-.1-1.8,0-3.7,0-5.9,1.3,0,2.2,0,3.4,0Z"/>
  <path class="st9" d="M120.9,514c1.5,0,2.2.2,2.1,1.7,0,1.8,0,3.5,0,5.5h-6.8v-7.2c1.5,0,3,0,4.7,0Z"/>
  <path class="st15" d="M378.5,523.8c-.5-2.3-.7-4.6-1-7h7.3v7.1c-2.1,0-4.1,0-6.3,0Z"/>
  <path class="st10" d="M515.2,786.5c.9,0,1.6,0,2.5.1,0,1.2,0,2.1,0,3.1,0,4.8.2,3.9-3.8,3.9-1,0-3-.3-3-.6-.3-2-.4-4.1.1-5.9.1-.5,2.6-.4,4.2-.6Z"/>
  <path class="st13" d="M480.8,558.7c1.7,0,3.1,0,4.7,0v7.2c-.7,0-1.3.1-1.8.1-6.2-.1-5.2,1.2-5.3-5.4,0-1.8.8-2.1,2.4-1.9Z"/>
  <path class="st1" d="M227.2,574.4c0-.4,0-.5,0-.7,0-6.1.6-6.6,7-5.2v7.3c-2.4-.4-4.7-.8-6.9-1.4Z"/>
  <path class="st10" d="M267.4,695.9c-.2-.4-.3-.6-.3-.9-.4-5.8.4-6.6,6.2-5.8.5,0,1.2.5,1.2.8,0,1.8,0,3.6-.1,5.3,0,.3-.8.7-1.3.7-1.9,0-3.7,0-5.7-.2Z"/>
  <path class="st15" d="M281.8,738.9c0-2.2,0-4.2,0-6.4h7v7.3c-2.4-.2-4.6-.4-6.9-.8Z"/>
  <path class="st5" d="M411.2,833.9c-.5-2.3-.8-4.6-1.2-7.1h7.3v7.1c-2.1,0-4,0-6.2,0Z"/>
  <path class="st5" d="M149,491.8c-1.4.1-2.3-.1-2.2-1.7,0-1.8,0-3.5,0-5.5h6.9v7.1c-1.6,0-3,0-4.7,0Z"/>
  <path class="st10" d="M423.4,676.4c-.8-.5-1.4-1.1-2-1.6,0,0,0-.3,0-.5-.2-5.1.6-5.9,5.7-5,.5,0,1.3.9,1.3,1.5.2,1.8,0,3.5,0,5.7-1.8,0-3.3,0-5,0Z"/>
  <path class="st1" d="M211.1,848.1c0-1.2,0-2.1,0-3.3h7v6.9h-7c0-1.2,0-2.3,0-3.6Z"/>
  <path class="st9" d="M397,629.2c0,2.1,0,3.9,0,6-2.1,0-4,0-5.9,0-.5,0-1.2-.8-1.3-1.3-.2-1.8,0-3.7,0-5.9,2.2,0,4.3,0,6.3,0,.3,0,.6.6.9,1.2Z"/>
  <path class="st3" d="M435.5,401.5c0,1.2,0,2.1,0,3.3h-6.8v-6.9h6.8c0,1.1,0,2.2,0,3.6Z"/>
  <path class="st1" d="M306.1,380.8c0-1.9,0-3.6,0-5.5h6.7v6.8c-1.9,0-3.8,0-5.7,0-.3,0-.7-.7-1-1.3Z"/>
  <path class="st9" d="M356.9,526.8c.1,1.5-.3,2.2-1.7,2.1-1.7-.1-3.4,0-5.2,0v-6.8h6.9c0,1.5,0,3,0,4.7Z"/>
  <path class="st13" d="M110.6,705.9c0,.9-.1,1.6-.2,2.3h-6.9v-7h7.1c0,1.6,0,3,0,4.7Z"/>
  <path class="st10" d="M141.8,833.9c-2.2,0-4.2,0-6.5,0,0-2.1,0-4,0-5.9,0-.5.8-1.2,1.3-1.2,1.8-.1,3.5,0,5.8,0-.2,2.5-.3,4.8-.7,7.2Z"/>
  <path class="st12" d="M84.7,747.2c0-.7,0-1.2,0-1.7,0-5.2.3-5.6,5.6-4.8.5,0,1.3.6,1.3,1,.1,1.8.1,3.5,0,5.3,0,.3-.6.9-.9.9-2,0-3.9-.3-6-.7Z"/>
  <path class="st2" d="M517.2,488.8c-2.2.2-4.3.2-6.6.2v-6.8h6.7c0,2.2,0,4.4-.1,6.7Z"/>
  <path class="st13" d="M324.6,554.4c-2.2.4-4.4.6-6.6.7-.2-.7-.3-1-.3-1.4-.3-6.3.2-6.7,6.9-5.6,0,2,0,4,0,6.2Z"/>
  <path class="st3" d="M552.7,612.8c-.6-.4-1.3-.8-1.4-1.2-.1-1.9,0-3.9,0-6.1,2.1,0,3.9,0,5.8,0,.5,0,1.2.8,1.2,1.3.1,1.8,0,3.7,0,6-1.9,0-3.7,0-5.6,0Z"/>
  <path class="st16" d="M288.6,850.8c2.3-.5,4.5-.7,7-1v7.6c-2,0-4,0-5.9,0-.4,0-1.1-.9-1.1-1.4-.1-1.6,0-3.2,0-5.1Z"/>
  <path class="st10" d="M235.6,380.2c0,1.9,0,3.6,0,5.7-2.2,0-4,0-5.8,0-.4,0-1.1-.4-1.1-.6,0-1.9,0-3.9,0-5.8,0-.2.2-.6.4-.6,2.1,0,4.2,0,6.2,0,.1,0,.2.7.3,1.3Z"/>
  <path class="st11" d="M547.9,524.9c.5,1.1.9,2.1,1,3.2.1,1.2,0,2.4,0,3.8h-6.8v-7c1.9,0,3.7,0,5.7,0Z"/>
  <path class="st3" d="M264,872c1.1,0,2,0,3,0v7.1c-1.9,0-3.7,0-5.6,0-.4,0-1.1-.7-1.2-1.1-.1-1.5-.3-3.1,0-4.6.4-2.3,2.4-.8,3.8-1.3Z"/>
  <path class="st3" d="M63.6,605.4c0,.9,0,1.6,0,2.6h-6.7v-6.7h6.7c0,1.3,0,2.6,0,4.1Z"/>
  <path class="st3" d="M378.2,595.3c.2,1.3.4,2.4.2,3.5-.1,1-.6,2.6-1,2.7-1.7.2-3.9.4-5.2-.4-.8-.5-.6-3-.4-4.5.1-.7,1.5-1.4,2.4-1.6,1.2-.2,2.6,0,4,.3Z"/>
  <path class="st2" d="M407.6,423.4c-.4.6-.7,1.1-1.1,1.1-1.8,0-3.7,0-5.7,0v-7h6.9c0,1.9,0,3.7,0,5.8Z"/>
  <path class="st15" d="M300.4,704c.2-1.5.2-3.7.7-3.9,1.7-.5,3.7-.2,5.5-.1.3,0,.6.9.6,1.3,0,1.6,0,3.2,0,5.2h-6.7c0-.9-.1-1.6-.2-2.5Z"/>
  <path class="st13" d="M391.9,866.2c0-1,0-1.8.1-2.8h6.5v6.8h-6.7c0-1.3,0-2.6,0-4.1Z"/>
  <path class="st12" d="M257,579.6c0,.9-.1,1.6-.2,2.5-1.1,0-2,0-2.8,0-4.2,0-3.9.8-4-4,0-1.9.5-3,2.6-2.6.2,0,.3,0,.5,0,4.4,0,4.1-.7,4,4.2Z"/>
  <path class="st15" d="M366.5,709.8c0-.5,0-.7,0-1,0-5.1.2-5.3,5.3-4.7.5,0,1.3.6,1.4.9.1,1.8,0,3.6,0,5.4,0,.2,0,.4-.1.4-1.6.2-3.2.5-4.7.4-.6,0-1.2-.8-1.8-1.5Z"/>
  <path class="st15" d="M297.2,506.6c.4-.7.8-1.6,1.3-1.7,1.7-.2,3.4,0,5.2,0v6.7h-6.5c0-1.6,0-3.2,0-5Z"/>
  <path class="st1" d="M398.6,600.2c-2.1,0-3.9,0-6,0v-7h6.8c-.2,2.3-.4,4.6-.8,6.9Z"/>
  <path class="st15" d="M235.6,606c.6.5,1.4.9,1.4,1.4.2,1.7,0,3.4,0,5.3h-6.6v-6.7c1.7,0,3.3,0,5.2,0Z"/>
  <path class="st13" d="M384.3,609q5.8,0,5.5,5.6c0,.2,0,.3-.2.7h-6.7c0-1.7,0-3.4,0-5,0-.4.7-.8,1.3-1.3Z"/>
  <path class="st7" d="M220.8,648.6c-.7-.4-1.6-.8-1.7-1.3-.7-4.5,1.4-6.3,5.8-4.9.4.1.9.9.9,1.4.1,1.4,0,2.9,0,4.7-1.7,0-3.2,0-5,0Z"/>
  <path class="st8" d="M243,590c0,1.4,0,2.6,0,3.6-.5.3-.6.4-.7.4-6.9.2-6.3,1.2-5.9-6.3,1.8,0,3.6-.1,5.4,0,.5,0,.8,1.3,1.2,2.2Z"/>
  <path class="st16" d="M341.7,569.9c-1.1,2.4-2.6,3-4.9,1.9-2-.9-2-.9-.6-6.8.8,0,1.6,0,2.5,0,.9,0,1.8.1,3.1.2,0,1.6,0,3.1,0,4.7Z"/>
  <path class="st15" d="M372.4,662.8c2-.4,4-.7,6.2-1v6.8h-6.2c0-1.9,0-3.8,0-5.8Z"/>
  <path class="st13" d="M361.1,585.6c1.2,0,2.1,0,3.3,0v6.4c-1.5,0-3.1.1-4.5,0-1.6-.2-2.6-2.4-2.3-4.7.3-2.3,2-1.6,3.6-1.6Z"/>
  <path class="st15" d="M388.5,556.3c.7,0,1.2,0,1.7,0,1.8-.2,2.6.4,2.4,2.3-.1,1.4,0,2.7,0,4.3h-6.3v-6.4c.7,0,1.4-.1,2.3-.2Z"/>
  <path class="st9" d="M305.5,542.3c0-1.9,0-3.6,0-5.5h6.7v6.6c-2.2-.3-4.5-.6-6.7-1.1Z"/>
  <path class="st13" d="M286.3,688.9c1.7-.3,3.4-.5,5.1-.5.3,0,.9.8,1,1.3.2.9.3,2,0,2.9-.2.7-1,1.6-1.6,1.7-1.4.3-2.9,0-4.5,0,0-2,0-3.6,0-5.5Z"/>
  <path class="st15" d="M374.1,652.1c-.9.2-1.6.3-2.3.3-2.9-.2-4.7-3.3-3.5-5.8.2-.3.7-.7,1.1-.7,1.6,0,3.2,0,5.1,0,0,2.2-.2,4.2-.4,6.3Z"/>
  <path class="st0" d="M248.9,635.7c3.2,0,3.7-2.1,3.8-4.7,1.7.2,3.1.4,4.3.6-.1,2-.2,3.5-.3,5-2,.7-4,1.6-6.1,2-2.2.4-2-1.3-1.7-2.9Z"/>
  <path class="st7" d="M246.1,629c-.6.2-1,.3-1.4.4-.4-2.9-4.1-5-2-8.7h4.9c-.3,1.8,1,3.9-1,5.7-.5.4-.2,1.7-.5,2.7Z"/>
  <path class="st7" d="M302.7,556.9c2.1-.4,4.1-.6,6.3-.9v6.5c-1.8,0-3.5,0-5.3,0-.4,0-1-.9-1.1-1.4-.2-1.3,0-2.6,0-4.1Z"/>
  <path class="st13" d="M334.4,696.3c-.9,0-1.6,0-2.3-.1-.6-6.4-1.2-6.4,6-5.9v6c-1.2,0-2.3,0-3.7,0Z"/>
  <path class="st7" d="M359.4,662c1.4.9,2.6,1.6,3.9,2.4-.7,1.5-.9,3.2-1.9,4.1-.8.6-2.8.6-3.7,0-1-.6-2.1-2.6-1.8-3.3.6-1.4,2.2-2.2,3.6-3.2Z"/>
  <path class="st15" d="M266.2,562.1c1.7,0,3.3,0,5,0v6.2c-2-.2-4.4.1-5.7-.9-.8-.6.2-3.4.7-5.3Z"/>
  <path class="st15" d="M251.2,673.7c1.7,0,3.3,0,5,0v6.3c-2.2-.3-4.5-.1-5.9-1.2-.7-.6-1.3-3.6.9-5.1Z"/>
  <path class="st12" d="M319.3,697.1c-1.8,0-3.4,0-5.2,0v-5.7h6.4c-.3,1.9-.7,3.8-1.2,5.6Z"/>
  <path class="st8" d="M287.5,567c0,.9,0,1.6-.2,2.9-2-.2-4.2.1-5.7-.7-.7-.4-.9-3.8-.1-4.4,1.4-1,3.6-1,5.8-1.5,0,1.5.1,2.5.2,3.7Z"/>
  <path class="st8" d="M374.3,636.8c-.6-1.7-1-3.5-1.6-5.5h6.7c-.2,1.7-.4,3.5-.6,5.6-1.5,0-2.9,0-4.5,0Z"/>
  <path class="st7" d="M357.8,570.5c0,4.1-.7,4.7-4.1,4.8-2,0-2.5-.8-2.4-2.6.2-3,3.2-4.9,6-3.6.3.1.4.8.5,1.4Z"/>
  <path class="st7" d="M259,596.6c-1.7.4-3.4.8-5.1.8-.2,0-.6-1.9-.6-3,0-1-.8-2.7,1.2-2.9,1.8-.2,3.9-.7,4.7,1.6.3.9-.1,2.1-.2,3.4Z"/>
  <path class="st7" d="M259.2,652.8c-1.6-.1-2.9-.3-4.4-.4v-5.3h5.6c0,1.6.2,3.1.2,4.6,0,.4-.7.7-1.3,1Z"/>
  <path class="st15" d="M272,580.4c.4,3.5-1.3,5-4.6,4.1-.4-.1-.9-.7-1-1.1-.2-.8,0-1.6-.2-2.4-.5-1.8.3-2.4,1.9-2.5,1,0,2.1-.2,3.4-.3.2.7.3,1.4.5,2.3Z"/>
  <path class="st8" d="M371.5,619c.6-.7,1.1-1.6,1.7-1.7,1.2-.2,2.5,0,3.8,0,1,6.5,1,5.9-5.5,5.5,0-1.1,0-2.3,0-3.7Z"/>
  <path class="st15" d="M271.2,677.4c-1.5,2.6-2.2,2.7-5.2,1.2-1.9-1-1.2-2.8-.8-4,.8-2.2,3-1.6,4.6-1.3.6,0,1,1.4,1.4,2.3.2.5,0,1.1,0,1.9Z"/>
  <path class="st7" d="M321.5,684.3c-.4-1.8-.6-3.5-.8-5.5h5.8v5.6c-1.6,0-3.2,0-4.9,0Z"/>
  <path class="st13" d="M356,677c.6.5,1.3.9,1.3,1.4.2,1.3,0,2.7,0,4.8-2.1-.5-3.9-.6-5.3-1.5-.6-.4-.7-2.5-.3-3.5.7-1.8,2.6-1.3,4.3-1.2Z"/>
  <path class="st15" d="M341.2,582.2c.8-1.3.7-3.3,3-2.8,1.7.3,3.7,0,3.4,2.8-.2,1.6,0,3.1-2.2,3.2-2.9.2-3.6-.2-4.1-3.2Z"/>
  <path class="st12" d="M280.2,680.9c-1.6-1.7-1.9-4.4-.3-5.5,1-.6,3-.3,4.1.4.7.4,1,2.1.9,3.2,0,.7-1.1,1.6-1.9,1.9-.7.3-1.7,0-2.8,0Z"/>
  <path class="st8" d="M300.5,570.1c0,1.4,0,2.6,0,4.2-1.6,0-3,.2-4.4,0-2-.4-1.5-2.3-1.6-3.7-.1-1.3.3-2.2,1.7-1.8,1.4.4,3.5-1.4,4.3,1.4Z"/>
  <path class="st10" d="M247.8,611c-.6-.7-1.2-1.4-1.4-2.2-.2-1,0-2.1,0-3.3,1.1,0,2,0,2.8,0s1.7,0,2.8,0v5.5c-1.3,0-2.7,0-4.2,0Z"/>
  <path class="st7" d="M360.7,600.5c2.5,1.1,1,3.2,1.2,4.7,0,.2-1.6.6-2.4.7-.9.1-1.9,0-2.8,0-1.2-3.6-1.3-6.1,4.1-5.5Z"/>
  <path class="st8" d="M279.3,583.5c-.8-3.1.4-4.3,5.5-5.2,0,1.8.3,3.6-.1,5.1-.2.7-2,1.1-3,1.2-.7,0-1.5-.7-2.3-1.2Z"/>
  <path class="st7" d="M254.7,617.9c0-.7.1-1.3.3-2.5,1.7,1.8,4.9-.4,5.3,2.3.5,3.1-.7,4-3.1,4.1-3.2.2-2.4-2-2.5-3.9Z"/>
  <path class="st15" d="M346.9,670.3c-2.1.1-4.5,1.1-5.4-1.7-.3-.8-.3-2.5,0-2.7,1.5-.5,3.1-.8,4.6-.8.3,0,.8,1.4.9,2.2.1.9,0,1.9-.2,3Z"/>
  <path class="st7" d="M250.1,663.8c-2.3,0-1.6-1.7-1.5-2.7,0-.8.6-2.1,1.2-2.4,1.3-.5,2.8-.4,4.2-.5,1.2,5.2.8,5.7-3.9,5.6Z"/>
  <path class="st8" d="M241.3,642.9c1.8-.4,3.5-.6,5.4-.9v5.4c-4.7,1.5-5.7.7-5.4-4.5Z"/>
  <path class="st15" d="M338,677.3c.6,0,1,0,1.4,0,2.8,0,4.1,1.8,3.1,4.5-.2.5-.9,1-1.4,1-1.3,0-2.8,0-3.9-.6-1.1-.7-.6-3.7.7-4.9Z"/>
  <path class="st8" d="M336.6,551.7c1.3,0,2.1.2,2.1,1.6,0,1.1,0,2.3,0,3.5h-5.7c0-1.7.1-3.3.2-5.1,1.2,0,2.2,0,3.4,0Z"/>
  <path class="st15" d="M355.7,650.4c2.2-3.1,3.7.4,5.7.3-.1.8-.3,1.4-.3,2.1,0,2-.8,2.8-2.9,2.7-2.3-.1-2.7-1.3-2.5-3.2,0-.6,0-1.1,0-1.8Z"/>
  <path class="st10" d="M306.1,689.4c-1.8,0-3.4,0-5.2,0v-5.2h5.6c0,1.8-.2,3.4-.4,5.1Z"/>
  <path class="st7" d="M268.8,665c-1.7.2-3.3.6-4.8.3-.4,0-.9-2.1-.6-3,.2-.9,1.3-1.7,2.2-2.1.8-.3,1.9.1,3,.2,0,1.5.2,3,.1,4.6Z"/>
  <path class="st15" d="M331.5,579.5c1.8,0,1.5,1.1,1.3,2-.3,1.1-.7,2.1-1.1,3.3h-4c-.3-5.7-.3-5.7,3.9-5.4Z"/>
  <path class="st7" d="M236.5,631c.4,1.7.7,3.3,1,5.3h-5.8v-5.3c1.6,0,3.1,0,4.8,0Z"/>
  <path class="st12" d="M332.6,667.7c.1.7.3,1.3.2,1.9,0,1.3.5,2.9-1.9,2.8-1.8,0-3.5.2-3.2-2.5.1-.9,0-1.8,0-3.2,1.7.3,3.2.6,4.8,1.1Z"/>
  <path class="st8" d="M311.1,576.5c-1.6,0-2.9-.1-4.3-.2-1.4-4.4-.9-5,5-4.5-.2,1.6-.3,3.2-.7,4.8Z"/>
  <path class="st12" d="M345.1,595c0-1.5,0-2.7,0-4.2h4.8c0,1.3.7,3.3,0,4.2-1.1,1.3-3.1,2-4.8,0Z"/>
  <path class="st8" d="M280.5,664.7c-.2,1.1-.4,2.1-.8,3.6-1.4-.4-3.9-.8-4-1.3-.1-1.5.2-3.8,1.3-4.6,1.4-1,3,.2,3.4,2.3Z"/>
  <path class="st7" d="M293.2,679.2c-.3-1.6-.4-3.1-.5-4.7h4.7c1,5,.5,5.7-4.1,4.7Z"/>
  <path class="st12" d="M259.3,604.3c.5-2.6,2.6-1.8,3.4-1.2.8.6.9,2.3.9,3.5,0,.4-1.3.9-2.1,1.1-.6.2-1.4-.1-2.2-.2,0-1.1,0-2.1,0-3.2Z"/>
  <path class="st7" d="M314.5,677.4c0,1,0,1.8,0,2.7h-4.1v-4.2c1.5.4,3.4-1.6,4.1,1.6Z"/>
  <path class="st3" d="M365.6,615.7c0-1.3,0-2.4,0-3.7h5.2v4.5c-1.7-.2-3.4-.4-5.1-.8Z"/>
  <path class="st12" d="M360.3,622.4q3.6.8,3,4.3c-1.2.4-2.4.9-3.9,1.4,0-1.8-1.8-3.8.9-5.6Z"/>
  <path class="st12" d="M272.3,528c3.8-.2,3.9-.2,3.5,4.1h-4.2c.2-1.4.4-2.8.7-4.1Z"/>
  <path class="st0" d="M361.6,639.7c-.3.8-.7,1.6-1,2.4-2.4.2-3.9-.8-4.2-3,0-.5.8-1.4,1.4-1.8.6-.3,1.4-.2,2.3-.2.6.9,1,1.8,1.4,2.6Z"/>
  <path class="st12" d="M353.3,613.8c1.2-.5,2.4-.7,4.2-1.2-.2,1.9,0,3.5-.7,4.7-.3.6-2.1.3-3.5.4,0-1.5,0-2.6,0-3.9Z"/>
  <path class="st8" d="M269.2,595.8c-1-.2-1.9-.4-2.8-.6v-3.9c1.2,0,2.4-.2,4.1-.3-.8,1.7,1.3,3.6-1.3,4.9Z"/>
  <path class="st0" d="M263.3,640.5c.2,2-.9,2.2-2.3,2-2.1-.3-1.8-2-1.7-3.4.3-2.5,2.3-.8,3.5-1.6.2,1.2.3,1.9.4,2.9Z"/>
  <path class="st0" d="M346.4,659.7c-.5-1.3-.8-2.5-1.1-3.9,1.6-.2,2.7-.4,4.1-.6v4.5c-1,0-1.9,0-3,0Z"/>
  <path class="st0" d="M314.8,529.8c-3.2-.3-1.4-2.5-2-4.2h3.9c.8,3.3.6,3.9-1.9,4.2Z"/>
  <path class="st8" d="M258.4,545.6c-1.1,0-1.9-.1-2.9-.2v-3.7h4.1c-.3,1.4,1.3,3.1-1.3,3.9Z"/>
  <path class="st10" d="M213.7,606.6c1.3,0,2.4,0,3.6,0,0,.8.1,1.4.1,2,0,.6,0,1.2-.1,2h-4c0-1.3.1-2.6.4-3.9Z"/>
  <path class="st16" d="M361.8,639.7c-.6-.9-1-1.7-1.5-2.7,0-.9.3-1.7.8-2.6.4,0,.5,0,.7-.1.6,0,1.3,0,2.2.2.4,1.8.5,3.3.6,4.9-.9.1-1.7.2-2.8.4Z"/>
  <path class="st0" d="M291.8,584.2c-.5-1.3-.7-2.6-1.1-4.2,1.5,0,2.6-.1,3.7-.2.7,3.5.6,3.7-2.6,4.4Z"/>
  <path class="st0" d="M243.7,598.8c.5,0,.8-.1,1.1-.2,1.4,0,2.7.3,2.2,2-.2.6-1.7,1-2.6,1.1-1.7.1-1.4-1.2-1.2-2.2,0-.2.3-.4.6-.7Z"/>
  <path class="st17" d="M367.7,606.1c.1,1,.3,2.7,0,2.8-1.1.3-2.3.1-3.5-.2.8-1.5.7-4,3.4-2.6Z"/>
  <path class="st0" d="M338.3,590.2c-.7.6-1.7,1.6-1.9,1.5-.8-.6-1.4-1.5-2-2.4,0,0,.8-1,1.2-1,1.2,0,2.8-.2,2.7,2Z"/>
  <path class="st17" d="M376.6,576.3c.3,1.8.4,3.6.4,5.6-.4-.3-.6-1-1.1-1.1-1.1-.3-2.2-.4-2.1-2,.1-1.7,1.3-2.1,2.8-2.5Z"/>
  <path class="st17" d="M362.6,537.2c1.9.3,1.8,2.1,1.3,2.9-.6.9-2.2,1.2-3.4,1.4-.3,0-1.2-1.3-1.2-2,0-.7.5-1.5.8-2.1-.2,1.5-.9,2.9,1.2,3.2,2.1.3,2.5-.7,1.4-3.4Z"/>
  <path class="st0" d="M320.6,578.7c.3,1.5.8,3.3-1.6,3-.7,0-1.2-.9-1.8-1.4.6-.6,1.2-1.3,1.9-1.7.3-.2.9,0,1.5.1Z"/>
  <path class="st0" d="M287.5,669.5c-.2-1-.3-1.9-.4-3.1,1.3.2,2.4.4,3.4.6.3,3.1.2,3.1-3,2.5Z"/>
  <path class="st17" d="M365.4,577c1.2-.9,2.5-1.5,3.1.2.2.5-.5,2-1,2.2-1.7.5-2.3-.6-2.1-2.4Z"/>
  <path class="st17" d="M263.5,624.5c-.4.9-.8,1.8-1.5,2.4-.2.1-1.5-.5-1.6-.9-.1-.6.2-1.8.7-2,.6-.3,1.5.2,2.4.5Z"/>
  <path class="st12" d="M362.4,537.1c1.3,2.8.9,3.7-1.2,3.4-2.1-.3-1.4-1.8-1.1-3.2.7-.2,1.4-.2,2.3-.2Z"/>
  <path class="st17" d="M353.6,632.2c.1,1.3.3,2.7-1.4,2.6-2.3-.2-1-2-1.5-3.8,1.2.5,2,.8,2.9,1.2Z"/>
  <path class="st17" d="M276.1,592.7c-.4-2.9-.3-3,2.8-2.5,0,.3.1.6.1.9,0,.5,0,1-.1,1.7-.9,0-1.8,0-2.8-.1Z"/>
  <path class="st17" d="M351.9,598.7c0,1-.2,1.8-.3,2.7-.6-.4-1.6-.7-1.7-1.2-.2-1.2.4-2,2-1.5Z"/>
  <path class="st0" d="M364.8,639.2c-.3-1.5-.4-3.1-.6-4.8,2,1.1,1.2,3,.6,4.8Z"/>
  <path class="st0" d="M361.7,634.2c0,0-.1,0-.4.1,0,0,.2-.1.4-.1Z"/>
  <path class="st19" d="M309.1,607.6c4.6,2.6,8.9,5.1,13.3,7.5,1.9,1,2.8,2.2,2.7,4.6-.2,5-.1,9.9,0,14.9,0,1.6-.4,2.7-1.9,3.5-4.6,2.5-9,5.2-13.6,7.7-.9.5-2.4.5-3.3,0-4.7-2.5-9.4-5.2-13.9-8-.8-.5-1.4-1.7-1.5-2.7-.1-5.5-.1-11.1,0-16.6,0-.9.7-2.2,1.5-2.6,4.5-2.7,9.1-5.3,13.8-7.9.8-.4,1.8-.3,2.9-.4Z"/>
</svg>