<?xml version="1.0" encoding="UTF-8"?>
<svg id="Layer_1" xmlns="http://www.w3.org/2000/svg" version="1.1" viewBox="0 0 612 887">
  <!-- Generator: Adobe Illustrator 30.3.0, SVG Export Plug-In . SVG Version: 2.1.3 Build 182)  -->
  <defs>
    <style>
      .st0 {
        fill: #010101;
      }

      .st1 {
        fill: #eaeaea;
      }

      .st2 {
        fill: #e6e6e6;
      }

      .st3 {
        fill: #f6f6f6;
      }

      .st4 {
        fill: #e5e5e5;
      }

      .st5 {
        fill: #e7e7e7;
      }

      .st6 {
        fill: #dddcdc;
      }

      .st7 {
        fill: #fcfcfc;
      }

      .st8 {
        fill: #eb661b;
      }

      .st9 {
        fill: #c7c7c9;
      }

      .st10 {
        fill: #e8e8e8;
      }

      .st11 {
        fill: #fdfdfd;
      }
    </style>
  </defs>
  <path class="st11" d="M210.2,477.5c-2.5,2.5-5,5.1-7.4,7.6-2.6,2.6-5.1,5.3-7.8,7.8-.6.5-1.6.8-2.4.8-17.5,0-35.1,0-52.6,0-4.5,0-9.1,0-13.8,0v-136.2c.5,0,1.1,0,1.6,0,21.7,0,43.3,0,65,0,.8,0,1.8.4,2.4,1,4.8,4.6,9.5,9.3,14.3,14.2-.2,1.1-.6,2-.6,2.8,0,7.8,0,15.5,0,23.3,0,25.6,0,51.3,0,76.9,0,1.1.1,1.9,1.4,1.8M183.2,461.4c.2,1,.4,1.9.6,2.9h.5c.2-.6.6-1.4.7-2.1,0-1.2-.3-2.5-.3-3.7,0-3.2.2-6.3.2-9.5,0-3-.2-6.1-.2-9.1,0-4.5.2-9,.2-13.5,0-5.5-.2-11-.3-16.5,0-.9.2-1.8.2-2.7,0-3.3-.2-6.6-.2-10,0-1,.1-2,.2-3,0-1.5-.1-3.1,0-4.6.3-2,0-2.3-2.1-2.4-.2-.1-.3-.2-.6-.5-1.4-1.9-3.2-2.3-5.5-2.3-7.2.1-14.4,0-21.6,0-.4,0-.8,0-1.1,0v82.7c.8,0,1.5,0,2.2,0,7,0,13.9,0,20.9,0,2.2,0,3.7-.6,5.1-2.4,1.4-.9.6-2.3,1.1-3.4Z"/>
  <path class="st11" d="M375.7,357.4c9.9,0,19.7,0,29.5,0v26.8h-49.3v26.9h40v26h-40v29.9h50.4v26.6h-78.3v-136.2c15.9,0,31.7,0,47.6,0Z"/>
  <path class="st11" d="M274.9,357.5c.8,0,1.7,0,2.8,0,6.2.1,12.1.2,18,.2,5.2,5.1,10.3,10.1,15.5,15.2.3.3.5.9.5,1.4,0,9.9,0,19.9,0,29.8,0,.3,0,.5-.2.9h-27.7c0-5.3,0-10.6,0-15.8,0-3.1-2-5.1-5.2-5.1-6.6,0-13.2,0-19.8,0-2.3,0-4.6,2.3-4.6,4.6,0,24.4,0,48.9,0,73.3,0,2.6,2.4,4.9,5,4.9,6.8,0,13.6,0,20.4,0,2,0,4.3-2.4,4.3-4.4,0-5.8,0-11.6,0-17.5h27.9c0,.9,0,1.8,0,2.7,0,9.3,0,18.6,0,27.9,0,1.2-.4,2-1.2,2.9-4.8,4.7-9.5,9.5-14.3,14.2-.5.5-1.3.8-1.9.8-16.7,0-33.5,0-50.2,0-.7,0-1.6-.4-2.1-.9-4-4-8-8-11.8-12.1,1.5-.5.7-1.1.2-1.6-.5-.6-1.2-1.1-1.3-1.7-.2-1.6-.1-3.3-.1-4.9,0-32.4,0-64.8,0-97.2,0-2.6,1.8-3.8,3.3-4.9,1.2-.9,2.9-1,2.7-3,0-.1.2-.3.3-.4,1.4-1.4,2.9-2.8,4.4-4.1,1-.9,1.6-1.7,1-3.1.6-.6,1.2-1.3,2.1-2,6.2,0,12.2,0,18.2,0,.5,0,1-.2,1.5-.3.4,0,.8,0,1.4,0,2.2.2,4.2.2,6.2.2,1.6,0,3.2-.2,4.8-.3Z"/>
  <path class="st7" d="M475.7,357.4c6.7,0,13.3,0,20,0v26.7h-47.2v27.2h39.3v25.8h-39.4v56.4h-27.6v-136.1c18.3,0,36.5,0,54.9,0Z"/>
  <path class="st8" d="M249.4,505.8c-41.2,0-82.2,0-123.4,0v-2.3h369.8c0,.7,0,1.3.1,2.3-82.2,0-164.3,0-246.5,0Z"/>
  <path class="st4" d="M462.1,516c.5-.2,1-.3,1.7-.4-.6,4.5-1.1,8.7-1.6,13-1,.3-1.7.3-1.8-1-.2-1.8-.6-3.6-1.2-5.4-.3,1.8-.6,3.6-1,5.3,0,.4-.6.8-.9,1.2-.3-.4-.8-.8-.9-1.3-.6-3.9-1.1-7.7-1.6-11.8.5,0,1,0,1.6-.1.3,2.1.6,4.1.9,6.1h.4c.2-1.3.3-2.6.6-3.9.2-.7.6-1.4.9-2.1.4.7.9,1.4,1,2.2.3,1.4.5,2.9,1,4.3.3-2,.5-4.1.9-6.2Z"/>
  <path class="st1" d="M435.9,518c.5,1.6.9,3.2,1.4,5.1.7-2.3,1.3-4.2,1.7-6.2.2-1.1.7-1.5,1.8-1.1v13c-.5,0-.9,0-1.6,0v-5.8c-.1,0-.2,0-.4,0-.5,1.5-1,3.1-1.4,4.6h-.4c-.5-1.5-1-3-1.4-4.6-.1,0-.2,0-.3,0,0,1.5,0,3,0,4.5,0,1.2-.5,1.4-1.6,1.1v-12.8q1.5-.3,2.1,2Z"/>
  <path class="st5" d="M385.6,528.3c0-4.2,0-8.3,0-13,.8.6,1.4.9,1.6,1.4.9,2,1.6,4,2.7,6v-6.8c.7,0,1.1,0,1.7-.1v13.6c-.7-.6-1.4-.9-1.6-1.3-.9-2-1.6-4.1-2.7-6.1v7.3c-.8-.3-1.3-.4-1.8-.8Z"/>
  <path class="st1" d="M163.8,525.7c0-3.4,0-6.6,0-10.1,1.7,0,3.3-.1,4.8,0,.4,0,1.1.8,1.1,1.4.2,1.2,0,2.5,0,3.8,0,1.2-.2,2.1-1.9,1.9.7,2.1,1.4,4,2.1,5.9-1.1.4-1.7.2-2.1-.9-.7-2-1.4-4-2.2-6.1.9-.2,1.5-.3,2.2-.4v-4h-2.3v11.5h-1.8c0-1,0-2,0-3.1Z"/>
  <path class="st1" d="M468,516.8c.7-.5,1.4-1.1,2.1-1.1,4.7,0,4.2-.6,4.2,4.1,0,2.4,0,4.8,0,7.2,0,1.3-.5,1.9-1.8,1.8-5.1,0-4.5.6-4.5-4.4,0-2.5,0-5,0-7.7M469.8,522.2v5h2.7v-9.9h-2.7c0,1.5,0,3,0,4.8Z"/>
  <path class="st1" d="M181.2,519.2c0-1.2,0-2.3,0-3.6,1.7,0,3.2,0,4.8,0,.4,0,.9.3,1.1.6.7,1,.2,4.7-.7,5.6,1.6,1.9.9,4.1.8,6.2,0,.2-.7.7-1,.7-1.6,0-3.2,0-5,0,0-3.3,0-6.4,0-9.6M184.6,522.8h-1.6v4.3h2.9c-.4-1.6-.7-2.9-1.3-4.3M183.8,517.2c-.3.3-.8.5-.8.8,0,1.1,0,2.1,0,3.3,1.4,0,2.7.1,2.6-1.7,0-1,.8-2.7-1.8-2.4Z"/>
  <path class="st4" d="M196.5,522.7c0-2.4,0-4.5,0-6.8.5,0,1,0,1.5-.1.1.2.2.4.2.5,0,3.7,0,7.4,0,11,0,1.2-.5,1.7-1.7,1.6,0,0-.1,0-.2,0-5,0-4.3.6-4.4-4.2,0-2.9,0-5.8,0-8.9h1.8v11.4h2.7c0-1.5,0-2.9,0-4.5Z"/>
  <path class="st2" d="M341.5,527.2c.2-.4.7-.9.7-1.3,0-3.3,0-6.6,0-10.1h1.8c0,3.9,0,7.8,0,11.7,0,.2,0,.5-.1.7-1.4,1.5-3.2.6-4.9.6-.4,0-1.1-1.1-1.1-1.7-.1-3.7,0-7.4,0-11.3.6,0,1.1,0,1.6.2.1,3.7.2,7.3.2,11,.1.2.3.2.5.3.5,0,.9,0,1.2,0Z"/>
  <path class="st1" d="M380.9,522.3c0,1.8.1,3.4,0,5-.3,2.7-2.5,1.3-3.8,1.5-1.1.2-2.5.3-2.5-1.5,0-3.4,0-6.8,0-10.1,0-1.7,1.2-1.7,2.2-1.5,1.4.3,3.6-1.3,4,1.4.2,1.6,0,3.3,0,5.2M376.4,522.5v4.7h2.6v-9.9h-2.6c0,1.7,0,3.3,0,5.2Z"/>
  <path class="st2" d="M414.4,522.7v6.1h-1.7v-13.1c1.6,0,3.1-.1,4.7,0,.5,0,1.2.8,1.3,1.4.2,1,0,2.1,0,3.1,0,1.3,0,2.6-1.9,2.7.7,2,1.4,3.9,2,5.7-1.1.5-1.7.3-2.1-.9-.5-1.6-1.2-3.2-1.8-5.1-.2-2,1.5-.6,1.8-1.5v-3.9h-2.4v5.4Z"/>
  <path class="st5" d="M222.3,516.7c0-.3,0-.5,0-.5,1.6-.1,3.2-.5,4.7-.3.6,0,1.3,1.5,1.3,2.4.2,2.6,0,5.3,0,7.9,0,1.9-.8,2.6-2.6,2.6-1.1,0-2.2,0-3.5,0,0-4.1,0-8.1,0-12.2M224,517.6v9.6c2.5.3,2.6.2,2.6-2.1,0-1.8,0-3.7,0-5.5,0-2.3,0-2.4-2.7-2Z"/>
  <path class="st2" d="M241.7,525.1c0,.8,0,1.4,0,2.1h2.5c0-.8,0-1.6.1-2.6.6,0,1,0,1.5,0,.1.2.2.3.2.4.2,3.9-1.2,5-5,3.9-.5-.1-1-1-1-1.5,0-3.4,0-6.8,0-10.2,0-.2,0-.4,0-.5,1.2-1.9,3.1-.7,4.7-1,1-.2,1.4.5,1.4,1.5,0,.9,0,1.7,0,2.7h-1.6c0-.9-.1-1.7-.2-2.6h-2.5c0,2.6,0,5.1,0,7.8Z"/>
  <path class="st1" d="M265.7,526.4c0,2.4,0,2.5-2.3,2.5-4,0-3.8.4-3.8-3.8,0-3,0-6.1,0-9.2.6,0,1.1,0,1.7-.1v11.5h2.6v-11.4c.6,0,1.1,0,1.8,0,0,3.6,0,7.1,0,10.7Z"/>
  <path class="st5" d="M287.1,516.8c0,1,0,2,0,2.9-.6,0-1,0-1.6.1,0-.9-.2-1.6-.2-2.5h-2.2c-.4,1.4-.2,2.5.9,3.4.5.4.9,1.1,1.5,1.5,2.1,1.4,2.1,3.6,1.5,5.5-.6,2.2-2.8.8-4.3,1.1-1,.2-1.5-.4-1.5-1.4,0-.9,0-1.8,0-2.7q1.6-.3,1.9,2.4h2.1c.3-1.4.3-2.7-1-3.8-.7-.5-1.2-1.2-1.8-1.8-1.1-1.1-1.7-3.7-1.2-5.1,0-.2.2-.3.3-.4.8-.8,4.9-.4,5.6.7Z"/>
  <path class="st2" d="M143.6,528.5c-.2-.9-.2-1.8-.3-2.7,0-1.2.5-1.5,1.6-1.1,0,.8.1,1.6.2,2.5h2.3c.4-1.5.3-2.8-1-3.8-.3-.2-.5-.5-.7-.7-2-1.4-2.7-3.4-2.3-6,.7-.9,4.7-1.5,5.4-.8.4.4.5,1.1.5,1.7,0,.7,0,1.3,0,2.1h-1.6c0-.8-.1-1.5-.2-2.3h-2.2c-.5,1.3-.3,2.6.9,3.5.5.4.9,1,1.5,1.4,2,1.4,1.8,3.5,1.5,5.4,0,.4-.9,1-1.4,1.1-1.1.2-2.2,0-3.4.1-.3-.1-.5-.2-.8-.4Z"/>
  <path class="st1" d="M132,517c0,3.1.1,6.3,0,9.4,0,.7-.5,1.3-.9,2.1-1.7.2-3.3.4-5.1.5v-13.2c1,0,2,0,3.2-.2.4,0,.6,0,1.1.1.7.5,1.2.9,1.7,1.3M130.4,526.4c0-2.3,0-4.7,0-7,0-2.2-.2-2.4-2.6-1.9v10.1c.9-.3,1.7-.6,2.6-1.1Z"/>
  <path class="st1" d="M493.7,528.6c-.7-1.5-1.3-2.9-1.9-4.3-.1,0-.3,0-.4,0v4.5h-1.7v-13c.5,0,.9,0,1.7-.1v3.9c.1,0,.3,0,.4.1.4-.9.9-1.7,1.2-2.6.4-1.2,1-1.8,2.5-1.3-.8,1.8-1.6,3.5-2.2,5.3-.2.6-.2,1.3,0,1.9.7,1.9,1.6,3.8,2.5,5.9-.8,0-1.4-.2-2-.3M491.5,520c0,0,0,.1,0,.2,0,0,.1,0,0-.2M491.5,524c0,0,0-.1,0-.2,0,0-.1,0,0,.2Z"/>
  <path class="st5" d="M322.9,521.2c.5,2.6.9,5,1.4,7.4q-1.5.4-2.2-2.2c-.3,0-.7,0-1.1-.1-.3,0-.7,0-1.1,0-.2.8-.4,1.6-.6,2.5-.5,0-.9,0-1.4,0,0-.3-.2-.4-.1-.6.7-3.7,1.4-7.4,2-11.2.2-1.4.8-1.7,2.1-1.3.3,1.7.7,3.5,1,5.4M320.7,520.5c-.2,1.4-.4,2.8-.7,4.3.8,0,1.3-.1,2-.2-.3-1.6-.5-3.1-.8-4.6-.1,0-.3,0-.5.4Z"/>
  <path class="st3" d="M480.7,522.4c0,1.8,0,3.6,0,5.3,0,1.2-.5,1.3-1.6,1v-13c1.6,0,3.1-.1,4.7,0,.4,0,1,.9,1.1,1.4.2,1.1,0,2.2,0,3.3,0,1.3,0,2.5-1.9,2.5.7,2,1.4,3.9,2,5.8-1.1.4-1.7.2-2-.9-.5-1.8-1.2-3.5-1.9-5.5.7-.5,1.3-.8,1.9-1v-4h-2.5v5Z"/>
  <path class="st10" d="M423,528.7c.7-4.3,1.4-8.6,2.2-12.9.6,0,1.2,0,1.9-.1.8,4.4,1.6,8.6,2.4,13.1-.5,0-1,0-1.6.1-.2-.9-.4-1.7-.6-2.6h-2c-1,.7.1,3.1-2.3,2.4M425.9,520.4c-.2,1.4-.4,2.8-.7,4.3h1.9c-.2-1.6-.5-3.1-.7-4.6-.1,0-.3,0-.5.4Z"/>
  <path class="st10" d="M273.9,526.2c-2.3-.4-1.7,1.4-2.2,2.6-.4,0-.9,0-1.7,0,.8-4.5,1.7-8.8,2.5-13.1.6,0,1.1,0,1.8-.1.8,4.3,1.6,8.6,2.5,13-1.2.5-1.8.2-2-1.1,0-.5-.5-.9-.9-1.3M273.6,519.9c0-.1-.2-.3-.2-.4,0,0,0,0-.1.1-.3,1.7-.6,3.3-.8,5h2c-.3-1.6-.5-3-.8-4.7Z"/>
  <path class="st6" d="M216.7,515.7c.5.4.9.7,1.3,1.1-.1.1-.2.3-.3.4h-3.1v4.1h2.7v1.6h-2.7v4.3h3.1c0,.6,0,1.1,0,1.7h-5v-13.2c1.3,0,2.6,0,4,0Z"/>
  <path class="st10" d="M350.2,517.9c.2-.8.3-1.4.4-2.1h1.8c.8,4.3,1.6,8.6,2.4,12.8q-1.5.3-2.3-2.3c-2.4-.9-2.4.9-2.6,2.4h-1.7c.7-3.7,1.3-7.2,2-10.9M350.8,522.8c0,.6-.1,1.2-.2,1.8h2c-.3-1.7-.6-3.3-.9-4.9,0,0-.2,0-.3,0-.2.9-.4,1.9-.6,3.1Z"/>
  <path class="st10" d="M450,517.3c-.9,0-1.6,0-2.4,0v4h2.7c.5,2.8-2,1-2.7,2.1v3.7c1,.8,3.1-.8,3.3,1.8h-5.1v-13h5.4c-.4.6-.7,1-1.2,1.5Z"/>
  <path class="st10" d="M313.4,521.5c-.4,2.2-.7,4.2-1.2,6.2-.1.4-.7.8-1.1,1.1-.3-.4-.8-.7-.9-1.1-.8-3.9-1.4-7.9-2.2-12h1.7c.4,2.6.9,5.3,1.3,7.9.1,0,.2,0,.4,0,.4-2.6.9-5.2,1.3-7.9h1.7c-.3,1.9-.6,3.7-1,5.7Z"/>
  <path class="st4" d="M300.6,515.7c1.1,0,2.1,0,3.1,0q.2,1.4-3,1.7v3.8c.5,0,1.1,0,1.6.1.4.1.8.5,1.2.7-.4.3-.7.7-1.2.8-.5.1-1,0-1.7,0v4.3h3.1c0,.6,0,1.1.1,1.6h-5v-13c.5,0,1,0,1.7,0Z"/>
  <path class="st1" d="M404.2,515.7c1.4,0,2.6,0,3.9,0,0,.5.1.9.2,1.5h-3.1v4.1h2.7c.5,2.8-1.9,1-2.8,2.2v5.3c-1,.3-1.8.5-1.8-1,0-3.7,0-7.3,0-11,0-.4.5-.7.9-1.1Z"/>
  <path class="st6" d="M328.5,523.4c0-2.6,0-5,0-7.6.6,0,1.1,0,1.8-.1v11.5h3.1v1.6h-4.9c0-1.8,0-3.6,0-5.5Z"/>
  <path class="st4" d="M154.5,515.7c1.7,0,3.2,0,4.9,0,0,.6,0,1,0,1.5-.7,0-1.3.1-2.1.2v11.3c-1.3.5-1.7.1-1.7-1.1,0-3.4,0-6.8,0-10.2-.7,0-1.2-.2-2.3-.3.4-.6.7-1,1.1-1.4Z"/>
  <path class="st2" d="M360.1,519.1c0-.7,0-1.2,0-1.7-.7,0-1.2-.1-1.9-.2,0-.4,0-.8,0-1.4h5.7c0,.4,0,.8.1,1.4-.8,0-1.4.2-2.1.2,0,3.4,0,6.8,0,10.2,0,1.2-.4,1.6-1.7,1.1,0-3.1,0-6.2,0-9.5Z"/>
  <path class="st1" d="M205.6,528.9c-.4-.5-1-1-1-1.4,0-3.3,0-6.6,0-10-.7,0-1.3-.2-2-.2v-1.4h5.7v1.4c-.6,0-1.2,0-2,.2,0,3.3,0,6.6,0,9.9,0,.5-.3,1.1-.7,1.6Z"/>
  <path class="st10" d="M176.4,520.3c0,3,0,5.8,0,8.6h-1.6v-13c.4,0,.9,0,1.6-.1,0,1.6,0,3,0,4.6Z"/>
  <path class="st4" d="M368.1,521c0-1.8,0-3.4,0-5.2.5,0,1.1,0,1.7-.1v13.1c-.5,0-1,0-1.7.1,0-2.7,0-5.2,0-8Z"/>
  <path class="st4" d="M138.7,521.6c0,2.3,0,4.6-.1,7-.5.2-1,.2-1.7.2,0-4.2,0-8.3,0-12.4,0-.3.5-.5,1-.8.3,0,.5.1.7.3,0,1.1,0,2.2,0,3.5,0,.9,0,1.5,0,2.2Z"/>
  <path class="st9" d="M252,522.8c.6,0,1.1,0,1.5,0,1.2-.1,1.6.3,1.2,1.6h-3.8c-.2-.8-.5-1.7,1.1-1.6Z"/>
  <path class="st10" d="M227.2,373.3c0,1.2,0,2.4-.2,3.8,0-1.2,0-2.4.2-3.8Z"/>
  <path class="st11" d="M210.6,474.2c-.3,0-.8-.2-.8-.3,0-.3.3-.6.6-.9.1.4.2.7.2,1.2Z"/>
  <path class="st11" d="M210.6,464.6c-.3,0-.5-.1-.7-.2.2-.1.3-.2.6-.3.1.1.2.3.1.6Z"/>
  <path class="st0" d="M339.8,526.9c.1,0,.2,0,.4.2,0,0-.2,0-.4-.2Z"/>
  <path class="st0" d="M491.5,520c0,0,0,.1-.1.1,0,0,0-.1.1-.1Z"/>
  <path class="st0" d="M491.4,523.9c0,0,0-.1.1-.1,0,0,0,.1-.1.1Z"/>
  <path class="st11" d="M182.9,443.5c.1.7.2,1.6.1,2.6-.1-.8-.2-1.6-.1-2.6Z"/>
  <path class="st11" d="M182.9,448c.1.6.2,1.4.2,2.2-.1-.7-.2-1.4-.2-2.2Z"/>
</svg>